<svg id="Layer_1" data-name="Layer 1" xmlns="http://www.w3.org/2000/svg" viewBox="0 0 57 97.68069" fill="#826550"><path d="M79.6201,64.0801c-.3955-5.4532-.6103-10.8526-2.5205-15.2403-.7646,0-1.5293,7.3135-2.2793,10.9199-1.4775,7.1397-3.7148,8.2832-4.4394,8.2803-.8594-3.8574-4.3848-4.2412-7.8008-5.8799a11.09682,11.09682,0,0,0-3.6016-1.1992,14.57812,14.57812,0,0,0-1.9795.1162,14.40047,14.40047,0,0,0-1.9795-.1162,11.11936,11.11936,0,0,0-3.6015,1.1992c-3.416,1.6387-6.9414,2.0215-7.8008,5.8799-.7246.0039-2.9629-1.1406-4.4395-8.2803-.75-3.6054-1.5146-10.9199-2.2793-10.9199-1.9101,4.3887-2.125,9.7871-2.5195,15.2403-.8799,23.538-5.8799,36.288-5.8799,47.1591,0,26.06644,11.708,35.28129,28.5,35.28129,16.791,0,28.5-9.21485,28.5-35.28129C85.5,100.3681,80.5,87.6181,79.6201,64.0801ZM62.9395,73.7988c-2.793,1.1738-5.3536-.709-5.879-.7187-.0185-.001-.0429.0058-.0605.0058s-.042-.0068-.0605-.0058c-.5264.0097-3.086,1.8935-5.879.7187-.7851-3.583,2.3956-4.042,5.9395-3.9043C60.5449,69.7568,63.7246,70.2168,62.9395,73.7988Z" transform="translate(-28.499 -48.8398)"/></svg>