<svg xmlns="http://www.w3.org/2000/svg" viewBox="0 0 23.09794 21.12" fill="#826550"><title>beard-icon</title><path d="M460.4,271.36h-5.04a9.20849,9.20849,0,0,1-2.72947-1.40516c-1.04022-1.105-2.45728-1.59716-3.55731-2.61845a8.96689,8.96689,0,0,1-1.62839-2.64786A18.69211,18.69211,0,0,1,446.24,260.32V250.24h.96a16.29136,16.29136,0,0,0,.35287,3.44257,19.14943,19.14943,0,0,0,1.95783,4.13753,1.7627,1.7627,0,0,0,1.67736.22763,4.86008,4.86008,0,0,1,3.13016-1.81829c.26212-.02843.69792-.113.73818-.25875.24943-.90317.98807-.59038,1.55922-.72,2.18217-.49522,4.00649.677,5.93771,1.29694a7.0887,7.0887,0,0,1,1.66681,1.11292c.30049.20941.65857.65629.87716.5945a1.8538,1.8538,0,0,0,1.0921-.82434c.44716-.93009,1.494-1.62646,1.21095-2.87259-.01661-.07314.21953-.18367.29947-.30271.19783-.29457.50661-.593.53316-.90982.08635-1.03039.06618-2.06971.087-3.10559h.96c-.00731.3962.01039.7947-.02581,1.18824-.34659,3.76813.81836,7.62682-.81032,11.33817-.41822.953.2148,2.31278-1.04149,3.026-.2303,2.161-2.42273,2.32176-3.60595,3.51249a6.52242,6.52242,0,0,1-1.3402.86972C461.77631,270.57895,461.08593,270.96573,460.4,271.36Zm1.92529-10.52891c-1.10138-1.96-2.76533-1.40727-4.19042-1.57585a17.35211,17.35211,0,0,0-2.73923.0967,2.17753,2.17753,0,0,0-2.1853,2.12156,13.11815,13.11815,0,0,0,.15953,1.77287c1.99376.48147,2.93652-1.41127,4.39412-1.62642.46893.20915.90054.40621,1.336.59428.29095.12565.76365.16274.85255.36951.5404,1.2569,1.47129.67413,2.37271.643Z" transform="translate(-446.24 -250.24)"/></svg>