<svg id="Layer_1" data-name="Layer 1" xmlns="http://www.w3.org/2000/svg" viewBox="0 0 51.4794 49.4785" fill="#826550"><path d="M76.6368,24.7862h-.2403c-2.3066,7.6933-2.9258,17.0732-9.3584,20.6396-1.1894-3.3545-4.1093-4.8926-7.4394-6.3594-2.1172-.9335-4.5469-2.5576-6.6016-2.6406a2.1935,2.1935,0,0,0-1.5.3155,2.18693,2.18693,0,0,0-1.5-.3155c-2.0537.083-4.4844,1.7071-6.6015,2.6406-3.3301,1.4678-6.25,3.0049-7.4385,6.3594-6.4346-3.5654-7.0537-12.9463-9.3604-20.6396h-.2402a14.54915,14.54915,0,0,0-.5986,2.4004c0,1.9199.5429,21.4619,1.9199,28.4394,1.2402,6.2891,6.0771,10.8301,10.7998,13.8008,3.29,2.0684,8.5068,4.8379,13.0205,4.8379,4.5127,0,9.7285-2.7695,13.0195-4.8379,4.7227-2.9697,9.5606-7.5117,10.7998-13.8008,1.377-6.9775,1.9199-26.5195,1.9199-28.4394A14.53833,14.53833,0,0,0,76.6368,24.7862ZM62.7081,52.8418c-.2452,1.5528-1.6631,3.3858-3.3594,3.4805-2.9785.167-4.5069-4.415-7.8604-4.3799-3.3535-.0351-4.8818,4.5469-7.8603,4.3799-1.6963-.0957-3.1153-1.9287-3.3594-3.4805a7.58668,7.58668,0,0,1,1.6797-5.6396c1.1035-1.0674,2.8223-.9297,4.6797-1.2002a8.60475,8.60475,0,0,0,4.8593-1.9473h0a8.62769,8.62769,0,0,0,4.8604,1.9473c1.8574.2705,3.5762.1328,4.6797,1.2002A7.5765,7.5765,0,0,1,62.7081,52.8418Z" transform="translate(-25.7579 -24.7862)"/></svg>