<svg id="Layer_1" data-name="Layer 1" xmlns="http://www.w3.org/2000/svg" viewBox="0 0 57.68075 68.6397" fill="#826550"><path d="M80.4404,56.5195c.1211-1.6963.4746-3.5097.7197-5.3994.7041-5.4268,1.5967-11.6699-.1201-16.8008h-.2402c-1.3223,3.7432-1.2588,8.3477-2.1582,12.3604a19.71918,19.71918,0,0,1-3.2393,7.5605c-.5293.6875-1.0595,1.5449-1.9209,1.8008-.6631-3.9219-4.2832-4.9434-7.6806-6.3613-2.1289-.8877-3.9707-2.0157-6.1182-2.1592a10.77648,10.77648,0,0,0-2,.2305,10.61849,10.61849,0,0,0-2-.2305c-2.1484.1445-3.9902,1.2715-6.1191,2.1592-3.3965,1.4179-7.0176,2.4394-7.6807,6.3613-.8613-.2549-1.3916-1.1133-1.9209-1.8008a19.7185,19.7185,0,0,1-3.2383-7.5605c-.9004-4.0127-.8359-8.6172-2.1601-12.3604h-.2403c-1.7178,5.1309-.8252,11.374-.1201,16.8008.2451,1.8906.5977,3.7031.7188,5.3994.7919,11.0518-6.9502,23.1201-6,28.9199.9296,7.5293,8.3964,9.3965,14.1601,12.3594,4.3467,2.2363,8.3125,4.9512,13.3213,5.1602h2.5566c5.0098-.209,8.9756-2.9248,13.3204-5.1602,5.7646-2.9639,13.2294-4.8301,14.1601-12.3594C87.3926,79.6387,79.6484,67.5713,80.4404,56.5195ZM57.6826,60.2646h0a35.9175,35.9175,0,0,1-7.1602-.5048c.6631-2.0518,4.0342-1.5596,7.0801-1.5596h.1592c3.0459,0,6.417-.4922,7.0791,1.5596A35.97608,35.97608,0,0,1,57.6826,60.2646Z" transform="translate(-28.84092 -34.3193)"/></svg>