<svg id="Layer_2" data-name="Layer 2" xmlns="http://www.w3.org/2000/svg" viewBox="0 0 141.666 139.541" fill="white">
  <path class="cls-1" d="M419.834,710.4629V690a1,1,0,0,0-2,0v20.4629c.334-.0068.665-.0254,1-.0254S419.5,710.4561,419.834,710.4629Z" transform="translate(-348.001 -689)"/><path class="cls-1" d="M393.76859,717.4365c.5683-.3457,1.14941-.6738,1.73341-.997l-10.23831-17.6983a.99983.99983,0,0,0-1.7305,1.002Z" transform="translate(-348.001 -689)"/><path class="cls-1" d="M358.50289,723.7266a.99833.99833,0,0,0,.3623,1.3662l17.6817,10.2705c.3232-.583.6523-1.1631.999-1.7305l-17.6768-10.2685A.9999.9999,0,0,0,358.50289,723.7266Z" transform="translate(-348.001 -689)"/><path class="cls-1" d="M454.41109,697.5205a.99833.99833,0,0,0-1.3662.3623l-10.8037,18.5996c.583.3242,1.1621.6533,1.7305,1l10.8017-18.5957A.99816.99816,0,0,0,454.41109,697.5205Z" transform="translate(-348.001 -689)"/><path class="cls-1" d="M479.78318,724.668a.9998.9998,0,1,0-1.0019-1.7305L460.168,733.7051c.34568.5683.67378,1.1494.997,1.7334Z" transform="translate(-348.001 -689)"/><path class="cls-1" d="M370.501,758.7705c0-.335.01849-.666.02539-1H349.001a1,1,0,1,0,0,2h21.52539C370.51949,759.4365,370.501,759.1055,370.501,758.7705Z" transform="translate(-348.001 -689)"/><path class="cls-1" d="M488.667,757.7705H467.14158c.0068.334.02542.665.02542,1s-.01862.666-.02542,1H488.667a1,1,0,1,0,0-2Z" transform="translate(-348.001 -689)"/><path class="cls-1" d="M478.80268,792.4482l-17.6816-10.2705c-.3232.584-.6533,1.1631-1,1.7305l17.6777,10.2686a.99948.99948,0,0,0,1.0039-1.7286Z" transform="translate(-348.001 -689)"/><path class="cls-1" d="M357.88479,792.873a.9998.9998,0,1,0,1.0019,1.7305L377.5,783.8359c-.34571-.5683-.67381-1.1494-.99711-1.7334Z" transform="translate(-348.001 -689)"/><path class="cls-1" d="M443.89939,800.1045c-.5683.3457-1.14939.6738-1.73339.9971l10.23829,17.6982a.9998.9998,0,1,0,1.7305-1.0019Z" transform="translate(-348.001 -689)"/><path class="cls-1" d="M382.89449,818.6543a.99945.99945,0,1,0,1.72851,1.0039l10.80379-18.5996c-.583-.3242-1.1622-.6533-1.7305-1Z" transform="translate(-348.001 -689)"/><path class="cls-1" d="M417.834,807.0781V827.541a1,1,0,0,0,2,0V807.0781c-.334.0069-.66511.0254-1,.0254S418.168,807.085,417.834,807.0781Z" transform="translate(-348.001 -689)"/><path class="cls-1" d="M452.74509,740.8867a1.50027,1.50027,0,1,0-1.5019-2.5976l-28.4317,16.4472h0a5.65988,5.65988,0,0,0-7.9482-.0058l-20.3428-11.8184a1.5001,1.5001,0,0,0-1.5078,2.5938l20.3467,11.8203a5.6674,5.6674,0,1,0,10.9511.0097Zm-29.4013,14.4619c-.0196-.0254-.0372-.0517-.0577-.0771C423.30659,755.2969,423.32419,755.3232,423.34379,755.3486Zm.3935.5889-.0215-.0352Zm-9.78029-.0439c-.00681.0127-.01461.0244-.02151.0371C413.94239,755.918,413.95019,755.9063,413.957,755.8936Zm.42579-.6241c-.0166.0215-.0322.044-.04879.0655C414.35059,755.3135,414.36619,755.291,414.38279,755.2695Zm4.45121,6.168a2.667,2.667,0,1,1,2.667-2.667A2.66987,2.66987,0,0,1,418.834,761.4375Z" transform="translate(-348.001 -689)"/></svg>