<svg id="Слой_1" data-name="Слой 1" xmlns="http://www.w3.org/2000/svg" viewBox="0 0 16.064 16.08"><title>login-icon</title><path d="M313.44,448.32c-.04393-.19349-.0947-.38572-.13067-.58069-.202-1.09513.16185-1.60667,1.36725-1.55673,1.78515.074,3.57564.01913,5.443.01913V434.16354h-6.71722L313.2,432.24h9.104v16.08Z" transform="translate(-306.24 -432.24)"/><path d="M306.24,439.2h7.00528c0-.52644-.02274-1.02592.0059-1.52244.0339-.58789.39686-.8742.8587-.46908a21.17389,21.17389,0,0,1,2.31151,2.36347c.81682.98192.72594,1.14908-.75592,2.42689-.35377.30505-.6878.635-1.01239.97131-.31037.32161-.59664.66649-1.07183,1.20216l-.53078-3.05231H306.24Z" transform="translate(-306.24 -432.24)"/></svg>