<svg  xmlns="http://www.w3.org/2000/svg" viewBox="0 0 22.12269 25.9893" ><path d="M672.24,397.2V371.28c4.67528-.01338,9.35057-.03571,14.02582-.02951a4.67732,4.67732,0,0,1,1.8736.25213c1.30475.59194,2.54162,1.33347,3.697,1.95586a6.07078,6.07078,0,0,1,1.08259,1.8846c.17764,1.23212.4619,2.70307-.03518,3.71135-.57014,1.15649-1.00257,2.7126-2.56647,3.21678a1.00263,1.00263,0,0,0-.00627.81795,5.52441,5.52441,0,0,0,1.68814,1.03607,3.07517,3.07517,0,0,1,2.35531,3.16616c.01742,1.47561.00935,2.9531-.04934,4.4273-.02489.6252.09534,1.31737-.8326,1.62264-.4853.15965-.85194.76743-1.20442,1.225-.70542.91577-1.41356,1.77592-2.73649,1.69559-.2718-.01651-.67807-.01739-.80578.14492-.90665,1.15229-2.16727.76839-3.30086.778C681.03033,397.2221,676.63507,397.2,672.24,397.2Zm7.08193-4.8933c2.507-.637,5.08027.88121,7.31829-1.04724a3.29509,3.29509,0,0,0,1.36782-2.10422c.07157-.63423-1.64871-2.84091-2.27884-2.86037-2.127-.0657-4.25726-.025-6.40726-.025Zm-.04891-15.99633c0,1.50312-.01368,2.93127.018,4.35842.00379.17117.27674.49709.386.48132,1.92269-.27751,3.93326.87768,5.82861-.83535,1.00678-.90993.6629-1.73327.5428-2.47218a2.24154,2.24154,0,0,0-1.53386-1.46256A45.70847,45.70847,0,0,0,679.273,376.31037Z" transform="translate(-672.24 -371.24942)"/></svg>