<svg width="15px" height="17px" fill="black" xmlns="http://www.w3.org/2000/svg" viewBox="0 0 15.02395 16.97547"><path d="M691.10342,392.11586H676.28934c0-.74651-.00005-1.41217,0-2.07784.0002-2.19812.10671-4.40322-.03691-6.5919a2.7384,2.7384,0,0,1,1.58362-3.07423c.15718-.07379.38487-.276.37087-.3938-.19345-1.62854,1.14761-2.37282,1.96792-3.38747.95487-1.1811,4.06775-1.91246,5.46949-1.11733,1.025.58145,1.6745,1.82724,2.701,2.40336,1.27262.71424.46275,2.55262,1.85732,2.98994,1.32475.41543,1.02985,1.4403,1.034,2.36674q.01554,3.477-.00294,6.954C691.23012,390.77664,691.15633,391.36552,691.10342,392.11586Zm-7.34184-11.56933.00835-.11318c.95992,0,1.92271.04722,2.8791-.01092,1.48287-.09014,1.56842-.27792.79474-1.406a.419.419,0,0,1-.06758-.22546c.00754-1.83757-1.79636-1.75715-2.77062-2.30892-1.42471-.80687-3.676.93414-4.40872,2.21-.11015.1918-.174.44891-.33777.56458-.75667.53434-.47084.857.22523.95071C681.3032,380.37143,682.53512,380.43871,683.76158,380.54653Zm1.46023,2.873c-.5283-.14866-.93374-.30084-1.353-.37335a2.16669,2.16669,0,0,0-2.38538,1.27385c-.20134.38909-.08379,1.34737.1964,1.5068.89411.50873.67285,1.25973.7,1.97116.02973.7796.00677,1.56121.00677,2.35283h1.88886a6.27589,6.27589,0,0,1,.01382-1.27253c.21988-.9775-.80162-2.32469.84053-2.9055.08632-.03053.08517-.36839.08812-.56373C685.228,384.74,685.22181,384.07073,685.22181,383.41955Z" transform="translate(-676.23794 -375.14039)"/></svg>