<svg style="display: none"><symbol viewBox="0 0 100 100" id="advantages--triangle" preserveAspectRatio="none"> <polygon points="0,100 50,0 100,100"/> </symbol><symbol viewBox="0 0 51.4794 49.4785" id="beard-1"><title>beard-1</title><path d="M76.6368,24.7862h-.2403c-2.3066,7.6933-2.9258,17.0732-9.3584,20.6396-1.1894-3.3545-4.1093-4.8926-7.4394-6.3594-2.1172-.9335-4.5469-2.5576-6.6016-2.6406a2.1935,2.1935,0,0,0-1.5.3155,2.18693,2.18693,0,0,0-1.5-.3155c-2.0537.083-4.4844,1.7071-6.6015,2.6406-3.3301,1.4678-6.25,3.0049-7.4385,6.3594-6.4346-3.5654-7.0537-12.9463-9.3604-20.6396h-.2402a14.54915,14.54915,0,0,0-.5986,2.4004c0,1.9199.5429,21.4619,1.9199,28.4394,1.2402,6.2891,6.0771,10.8301,10.7998,13.8008,3.29,2.0684,8.5068,4.8379,13.0205,4.8379,4.5127,0,9.7285-2.7695,13.0195-4.8379,4.7227-2.9697,9.5606-7.5117,10.7998-13.8008,1.377-6.9775,1.9199-26.5195,1.9199-28.4394A14.53833,14.53833,0,0,0,76.6368,24.7862ZM62.7081,52.8418c-.2452,1.5528-1.6631,3.3858-3.3594,3.4805-2.9785.167-4.5069-4.415-7.8604-4.3799-3.3535-.0351-4.8818,4.5469-7.8603,4.3799-1.6963-.0957-3.1153-1.9287-3.3594-3.4805a7.58668,7.58668,0,0,1,1.6797-5.6396c1.1035-1.0674,2.8223-.9297,4.6797-1.2002a8.60475,8.60475,0,0,0,4.8593-1.9473h0a8.62769,8.62769,0,0,0,4.8604,1.9473c1.8574.2705,3.5762.1328,4.6797,1.2002A7.5765,7.5765,0,0,1,62.7081,52.8418Z" transform="translate(-25.7579 -24.7862)"/></symbol><symbol viewBox="0 0 57.68075 68.6397" id="beard-2"><path d="M80.4404,56.5195c.1211-1.6963.4746-3.5097.7197-5.3994.7041-5.4268,1.5967-11.6699-.1201-16.8008h-.2402c-1.3223,3.7432-1.2588,8.3477-2.1582,12.3604a19.71918,19.71918,0,0,1-3.2393,7.5605c-.5293.6875-1.0595,1.5449-1.9209,1.8008-.6631-3.9219-4.2832-4.9434-7.6806-6.3613-2.1289-.8877-3.9707-2.0157-6.1182-2.1592a10.77648,10.77648,0,0,0-2,.2305,10.61849,10.61849,0,0,0-2-.2305c-2.1484.1445-3.9902,1.2715-6.1191,2.1592-3.3965,1.4179-7.0176,2.4394-7.6807,6.3613-.8613-.2549-1.3916-1.1133-1.9209-1.8008a19.7185,19.7185,0,0,1-3.2383-7.5605c-.9004-4.0127-.8359-8.6172-2.1601-12.3604h-.2403c-1.7178,5.1309-.8252,11.374-.1201,16.8008.2451,1.8906.5977,3.7031.7188,5.3994.7919,11.0518-6.9502,23.1201-6,28.9199.9296,7.5293,8.3964,9.3965,14.1601,12.3594,4.3467,2.2363,8.3125,4.9512,13.3213,5.1602h2.5566c5.0098-.209,8.9756-2.9248,13.3204-5.1602,5.7646-2.9639,13.2294-4.8301,14.1601-12.3594C87.3926,79.6387,79.6484,67.5713,80.4404,56.5195ZM57.6826,60.2646h0a35.9175,35.9175,0,0,1-7.1602-.5048c.6631-2.0518,4.0342-1.5596,7.0801-1.5596h.1592c3.0459,0,6.417-.4922,7.0791,1.5596A35.97608,35.97608,0,0,1,57.6826,60.2646Z" transform="translate(-28.84092 -34.3193)"/></symbol><symbol viewBox="0 0 62.3974 78.4888" id="beard-3"><path d="M93.5986,81.2446c0-5.2129-2.3672-7.7754-3.5986-9.9609A56.01057,56.01057,0,0,1,85.7998,53.644c-.0664-4.9053-1.6924-12.4463-2.8799-14.3999-.8643,0-1.5215,7.7808-2.2803,11.6392-1.4277,7.0429-3.7656,8.9345-4.4384,9-.7579-2.8086-4.1133-7.3633-13.6768-7.7246-.0479-.0166-.083-.0293-.125-.043-.043.0137-.0781.0264-.126.043-9.5615.3603-12.9179,4.916-13.6748,7.7246-.6738-.0655-3.0107-1.9571-4.4385-9-.7597-3.8575-1.416-11.6392-2.2802-11.6392C40.6914,41.1977,39.0664,48.7387,39,53.644a56.05716,56.05716,0,0,1-4.2002,17.6397c-1.2315,2.1855-3.5986,4.748-3.5986,9.9609,0,3.7441,5.1992,7.2031,5.6386,11.3984.125,1.2227-.0312,2.3496.1201,3.3614,2.003,17.4834,17.8672,21.7285,25.4385,21.7285h0c7.5733,0,23.4385-4.2442,25.4404-21.7285.1514-1.0118-.0048-2.1387.1202-3.3614C88.3984,88.4477,93.5986,84.9907,93.5986,81.2446ZM64.4385,66.0044a20.63316,20.63316,0,0,0-4.0801,0c-1.7315.3398-5.7608.9882-5.7608-1.0801,0-1.0684,6.7198-2.2949,7.8008-2.2949,1.0801,0,7.8008,1.2275,7.8018,2.2949C70.2002,66.9926,66.1719,66.3442,64.4385,66.0044Z" transform="translate(-31.2012 -39.2441)"/></symbol><symbol viewBox="0 0 57 97.68069" id="beard-4"><path d="M79.6201,64.0801c-.3955-5.4532-.6103-10.8526-2.5205-15.2403-.7646,0-1.5293,7.3135-2.2793,10.9199-1.4775,7.1397-3.7148,8.2832-4.4394,8.2803-.8594-3.8574-4.3848-4.2412-7.8008-5.8799a11.09682,11.09682,0,0,0-3.6016-1.1992,14.57812,14.57812,0,0,0-1.9795.1162,14.40047,14.40047,0,0,0-1.9795-.1162,11.11936,11.11936,0,0,0-3.6015,1.1992c-3.416,1.6387-6.9414,2.0215-7.8008,5.8799-.7246.0039-2.9629-1.1406-4.4395-8.2803-.75-3.6054-1.5146-10.9199-2.2793-10.9199-1.9101,4.3887-2.125,9.7871-2.5195,15.2403-.8799,23.538-5.8799,36.288-5.8799,47.1591,0,26.06644,11.708,35.28129,28.5,35.28129,16.791,0,28.5-9.21485,28.5-35.28129C85.5,100.3681,80.5,87.6181,79.6201,64.0801ZM62.9395,73.7988c-2.793,1.1738-5.3536-.709-5.879-.7187-.0185-.001-.0429.0058-.0605.0058s-.042-.0068-.0605-.0058c-.5264.0097-3.086,1.8935-5.879.7187-.7851-3.583,2.3956-4.042,5.9395-3.9043C60.5449,69.7568,63.7246,70.2168,62.9395,73.7988Z" transform="translate(-28.499 -48.8398)"/></symbol><symbol viewBox="0 0 44.6573 104.78125" id="beard-5"><path d="M66.3008,52.3911h-.1182c-2.8164,21.5254-5.3818,22.5605-6.9609,22.6797-1.4268.1094-3.6436-1.7715-4.9209-2.5195a15.88654,15.88654,0,0,0-9.0606-2.545,15.89823,15.89823,0,0,0-9.0615,2.545c-1.2773.748-3.4941,2.6289-4.9199,2.5195-1.5801-.1192-4.1436-1.1543-6.959-22.6797h-.1191c-2.0728,12.208-1.5606,50.2031,1.1992,63.5996,2.6103,18.5195,10.1103,35.1045,13.4394,39.59962.6827,1.03906,3.5332,1.56641,6.4209,1.582,2.8868-.01562,5.7373-.543,6.4209-1.582,3.3291-4.49512,10.8291-21.08012,13.4395-39.59962C67.8584,102.5942,68.373,64.5991,66.3008,52.3911ZM45.2402,80.5415a100.20711,100.20711,0,0,0-10.1416.5293c1.1348-1.7539,8.9912-3.2402,10.1416-3.4492,1.1494.209,9.0059,1.6953,10.1407,3.4492A100.23181,100.23181,0,0,0,45.2402,80.5415Z" transform="translate(-22.91149 -52.3911)"/></symbol><symbol viewBox="0 0 17.94818 38.89695" id="fb-icon"><path d="M529.2,409.2v-7.92h4.08006c0-2.82317-.01153-5.41959.01374-8.01564a1.64232,1.64232,0,0,1,.31481-1.02251c.61276-.66757,1.31445-1.25352,2.13639-2.01579h1.39684c-.02754-.98625.59-1.0126,1.3297-.9987,1.958.03682,3.91717.01246,5.87587.01245h2.79671v7.02193h-4.73619l.11959.24387-1.2183.99746v3.75373h5.839v7.97942h-5.92505v18.886h-7.96961V409.2Z" transform="translate(-529.2 -389.22525)"/></symbol><symbol viewBox="0 0 100 100" id="form-block--triangle" preserveAspectRatio="none" > <polygon points="0,100 50,0 100,100"/> </symbol><symbol viewBox="0 0 512 512" id="insta-icon"> <path d="M480,0H32C14.3,0,0,14.3,0,32v448c0,17.7,14.3,32,32,32h448c17.7,0,32-14.3,32-32V32C512,14.3,497.7,0,480,0z M192,256
	c0,0,5.1-64,64-64c58.9,0,64,64,64,64s1.8,64-64,64C190.2,320,192,256,192,256z M448,448H64V224h64h4.5c-2.7,10.3-4.5,20.9-4.5,32
	c0,70.7,57.3,128,128,128c70.7,0,128-57.3,128-128c0-11.1-1.9-21.7-4.5-32h4.5h64V448z M448,160h-96V64h96V160z"/> </symbol><symbol viewBox="0 0 16.064 16.08" id="login-icon"><path d="M313.44,448.32c-.04393-.19349-.0947-.38572-.13067-.58069-.202-1.09513.16185-1.60667,1.36725-1.55673,1.78515.074,3.57564.01913,5.443.01913V434.16354h-6.71722L313.2,432.24h9.104v16.08Z" transform="translate(-306.24 -432.24)"/><path d="M306.24,439.2h7.00528c0-.52644-.02274-1.02592.0059-1.52244.0339-.58789.39686-.8742.8587-.46908a21.17389,21.17389,0,0,1,2.31151,2.36347c.81682.98192.72594,1.14908-.75592,2.42689-.35377.30505-.6878.635-1.01239.97131-.31037.32161-.59664.66649-1.07183,1.20216l-.53078-3.05231H306.24Z" transform="translate(-306.24 -432.24)"/></symbol><symbol viewBox="0 0 100 50" id="page-title--reverse-triangle"  preserveAspectRatio="none"><polygon points="100 50 0 50 0 0 50 50 100 0 100 50"/></symbol><symbol viewBox="0 0 100 100" id="prise--triangle"  preserveAspectRatio="none"> <polygon points="0,100 50,0 100,100"/> </symbol><symbol viewBox="0 0 100 100" id="reviews--triangle"  preserveAspectRatio="none"> <polygon points="0,100 50,0 100,100"/> </symbol><symbol viewBox="0 0 22.12269 25.9893" id="vk-icon"><path d="M672.24,397.2V371.28c4.67528-.01338,9.35057-.03571,14.02582-.02951a4.67732,4.67732,0,0,1,1.8736.25213c1.30475.59194,2.54162,1.33347,3.697,1.95586a6.07078,6.07078,0,0,1,1.08259,1.8846c.17764,1.23212.4619,2.70307-.03518,3.71135-.57014,1.15649-1.00257,2.7126-2.56647,3.21678a1.00263,1.00263,0,0,0-.00627.81795,5.52441,5.52441,0,0,0,1.68814,1.03607,3.07517,3.07517,0,0,1,2.35531,3.16616c.01742,1.47561.00935,2.9531-.04934,4.4273-.02489.6252.09534,1.31737-.8326,1.62264-.4853.15965-.85194.76743-1.20442,1.225-.70542.91577-1.41356,1.77592-2.73649,1.69559-.2718-.01651-.67807-.01739-.80578.14492-.90665,1.15229-2.16727.76839-3.30086.778C681.03033,397.2221,676.63507,397.2,672.24,397.2Zm7.08193-4.8933c2.507-.637,5.08027.88121,7.31829-1.04724a3.29509,3.29509,0,0,0,1.36782-2.10422c.07157-.63423-1.64871-2.84091-2.27884-2.86037-2.127-.0657-4.25726-.025-6.40726-.025Zm-.04891-15.99633c0,1.50312-.01368,2.93127.018,4.35842.00379.17117.27674.49709.386.48132,1.92269-.27751,3.93326.87768,5.82861-.83535,1.00678-.90993.6629-1.73327.5428-2.47218a2.24154,2.24154,0,0,0-1.53386-1.46256A45.70847,45.70847,0,0,0,679.273,376.31037Z" transform="translate(-672.24 -371.24942)"/></symbol><symbol viewBox="0 0 100 100" id="works-list--triangle"  preserveAspectRatio="none"> <polygon points="0,100 50,0 100,100"/> </symbol></svg>