<svg xmlns="http://www.w3.org/2000/svg" viewBox="0 0 14.9195 14.86897" fill="black" width="15px" height="15px"><path d="M691.08465,391.18572H676.48644c-.42639-1.58286.05389-2.06711,1.29888-3.03757a7.16544,7.16544,0,0,1,2.93126-1.00207,2.33683,2.33683,0,0,0,1.37453-1.33452c.12832-.39693-.373-1.07206-.71609-1.53144-.75159-1.00619-1.57844-1.92786-1.134-3.3597a6.56077,6.56077,0,0,0,.086-1.67007c.03411-.976-.04113-1.7903,1.33292-2.21571.79431-.24592,1.54349-.83118,2.44688-.69861.412.06045.75925.47566,1.17181.63939a8.10707,8.10707,0,0,0,1.99811.44944,35.19521,35.19521,0,0,1-.06907,5.08607,6.32964,6.32964,0,0,1-1.51916,2.60156c-.42293.54165-.28124.667.07087,1.21034.65225,1.00645,1.59733.73126,2.41345,1.04329a11.79408,11.79408,0,0,1,2.13817,1.484A1.76039,1.76039,0,0,1,691.08465,391.18572Z" transform="translate(-676.33414 -376.31675)"/></svg>